<svg width="155" height="30" viewBox="0 0 155 30" fill="none" xmlns="http://www.w3.org/2000/svg">
<path d="M17.8 14.32C20.48 15.48 21.96 17.56 21.96 20.48C21.96 25.44 18.96 29 11.64 29H0.4V0.999998H10.6C17.36 0.999998 20.8 3.96 20.8 8.72C20.8 11.32 19.72 13.08 17.8 14.2V14.32ZM10.24 6.4H7.28V12.48H10.24C12.72 12.48 13.92 11.24 13.92 9.44C13.92 7.4 12.6 6.4 10.24 6.4ZM11.28 23.6C13.84 23.6 15 22.12 15 20.2C15 18.28 13.72 17.16 11.28 17.16H7.28V23.6H11.28ZM42.1163 0.999998H48.9563V18.12C48.9563 25.8 44.5963 29.52 37.2763 29.52C29.9563 29.52 25.5563 25.8 25.5563 18.12V0.999998H32.4363V17.44C32.4363 21.16 34.1963 22.92 37.2763 22.92C40.3163 22.92 42.1163 21.16 42.1163 17.44V0.999998ZM76.9194 29H69.6394L64.9194 19.64C64.7994 19.64 64.6794 19.64 64.5194 19.64H60.5994V29H53.7594V0.999998H64.5194C71.6394 0.999998 75.2794 5.08 75.2794 10.68C75.2794 14.04 73.6394 16.56 70.9594 18.08L76.9194 29ZM60.5994 7.48V13.88H64.5194C66.5194 13.88 68.3594 13.08 68.3594 10.68C68.3594 8.6 66.7994 7.48 64.5194 7.48H60.5994ZM92.1947 12.8H105.395V29H102.115L101.195 25.52C99.1947 28.04 96.2347 29.52 92.1947 29.52C83.8747 29.52 77.9547 23.32 77.9547 15C77.9547 6.72 83.8747 0.52 92.1947 0.52C96.9547 0.52 100.955 2.56 103.475 5.92L97.7947 9.68C96.5547 8.12 94.6747 7.08 92.1947 7.08C87.3147 7.08 84.7947 11.04 84.7947 15C84.7947 18.96 87.3147 22.92 92.1947 22.92C95.9947 22.92 98.1547 20.88 99.0347 18.24H92.1947V12.8ZM116.654 22.56H127.414V29H109.814V0.999998H127.054V7.48H116.654V11.8H125.774V17.92H116.654V22.56ZM154.576 29H147.296L142.576 19.64C142.456 19.64 142.336 19.64 142.176 19.64H138.256V29H131.416V0.999998H142.176C149.296 0.999998 152.936 5.08 152.936 10.68C152.936 14.04 151.296 16.56 148.616 18.08L154.576 29ZM138.256 7.48V13.88H142.176C144.176 13.88 146.016 13.08 146.016 10.68C146.016 8.6 144.456 7.48 142.176 7.48H138.256Z" fill="white" fill-opacity="0.75"/>
</svg>
