<svg width="142" height="30" viewBox="0 0 142 30" fill="none" xmlns="http://www.w3.org/2000/svg">
<path d="M10.2 0.999998C19.56 0.999998 25.08 6.48 25.08 15C25.08 23.56 19.56 29 10.2 29H0.4V0.999998H10.2ZM10.2 22.56C14.8 22.56 18.24 19.96 18.24 15C18.24 10.04 14.8 7.48 10.2 7.48H7.28V22.56H10.2ZM52.0366 29H44.7566L40.0366 19.64C39.9166 19.64 39.7966 19.64 39.6366 19.64H35.7166V29H28.8766V0.999998H39.6366C46.7566 0.999998 50.3966 5.08 50.3966 10.68C50.3966 14.04 48.7566 16.56 46.0766 18.08L52.0366 29ZM35.7166 7.48V13.88H39.6366C41.6366 13.88 43.4766 13.08 43.4766 10.68C43.4766 8.6 41.9166 7.48 39.6366 7.48H35.7166ZM54.8531 0.999998H61.6931V29H54.8531V0.999998ZM83.4138 0.999998H90.2938V29H84.2937L73.3738 12.68V29H66.4938V0.999998H72.4938L83.4138 17.32V0.999998ZM118.808 29H110.808L101.928 16.2V29H95.0875V0.999998H101.928V13.44L110.488 0.999998H118.128L108.448 14.56L118.808 29ZM132.63 12.36C139.47 14.28 141.47 16.44 141.47 20.8C141.47 25.36 137.51 29.52 130.51 29.52C125.35 29.52 120.47 27.52 119.23 22.32L125.55 20.36C125.91 21.96 127.39 23.68 130.43 23.68C132.79 23.68 134.55 22.76 134.55 20.92C134.55 18.84 131.79 18.52 128.63 17.72C123.03 16.36 120.51 13.76 120.51 9.08C120.51 3.72 124.95 0.52 130.79 0.52C135.59 0.52 139.67 3.08 140.75 7.52L134.43 9.08C134.07 7.72 132.91 6.36 130.47 6.36C128.47 6.36 127.15 7.44 127.15 9.04C127.15 11.24 130.47 11.76 132.63 12.36Z" fill="white" fill-opacity="0.75"/>
</svg>
