<svg width="15" height="15" viewBox="0 0 36 47" fill="none" xmlns="http://www.w3.org/2000/svg">
<path d="M21.72 19.376C32.664 22.448 35.864 25.904 35.864 32.88C35.864 40.176 29.528 46.832 18.328 46.832C10.072 46.832 2.264 43.632 0.28 35.312L10.392 32.176C10.968 34.736 13.336 37.488 18.2 37.488C21.976 37.488 24.792 36.016 24.792 33.072C24.792 29.744 20.376 29.232 15.32 27.952C6.36 25.776 2.328 21.616 2.328 14.128C2.328 5.552 9.432 0.431999 18.776 0.431999C26.456 0.431999 32.984 4.528 34.712 11.632L24.6 14.128C24.024 11.952 22.168 9.776 18.264 9.776C15.064 9.776 12.952 11.504 12.952 14.064C12.952 17.584 18.264 18.416 21.72 19.376Z" fill="white" fill-opacity="0.75"/>
</svg>
