<svg width="109" height="30" viewBox="0 0 109 30" fill="none" xmlns="http://www.w3.org/2000/svg">
<path d="M14.2 12.36C21.04 14.28 23.04 16.44 23.04 20.8C23.04 25.36 19.08 29.52 12.08 29.52C6.92 29.52 2.04 27.52 0.8 22.32L7.12 20.36C7.48 21.96 8.96 23.68 12 23.68C14.36 23.68 16.12 22.76 16.12 20.92C16.12 18.84 13.36 18.52 10.2 17.72C4.6 16.36 2.08 13.76 2.08 9.08C2.08 3.72 6.52 0.52 12.36 0.52C17.16 0.52 21.24 3.08 22.32 7.52L16 9.08C15.64 7.72 14.48 6.36 12.04 6.36C10.04 6.36 8.72 7.44 8.72 9.04C8.72 11.24 12.04 11.76 14.2 12.36ZM26.2281 0.999998H33.0681V29H26.2281V0.999998ZM47.6688 0.999998C57.0288 0.999998 62.5488 6.48 62.5488 15C62.5488 23.56 57.0288 29 47.6688 29H37.8688V0.999998H47.6688ZM47.6688 22.56C52.2688 22.56 55.7088 19.96 55.7088 15C55.7088 10.04 52.2688 7.48 47.6688 7.48H44.7488V22.56H47.6688ZM73.1853 22.56H83.9453V29H66.3453V0.999998H83.5853V7.48H73.1853V11.8H82.3053V17.92H73.1853V22.56ZM99.7469 12.36C106.587 14.28 108.587 16.44 108.587 20.8C108.587 25.36 104.627 29.52 97.6269 29.52C92.4669 29.52 87.5869 27.52 86.3469 22.32L92.6669 20.36C93.0269 21.96 94.5069 23.68 97.5469 23.68C99.9069 23.68 101.667 22.76 101.667 20.92C101.667 18.84 98.9069 18.52 95.7469 17.72C90.1469 16.36 87.6269 13.76 87.6269 9.08C87.6269 3.72 92.0669 0.52 97.9069 0.52C102.707 0.52 106.787 3.08 107.867 7.52L101.547 9.08C101.187 7.72 100.027 6.36 97.5869 6.36C95.5869 6.36 94.2669 7.44 94.2669 9.04C94.2669 11.24 97.5869 11.76 99.7469 12.36Z" fill="white" fill-opacity="0.75"/>
</svg>
