<?xml version="1.0" encoding="UTF-8" standalone="no"?>
<svg
   width="148.47063"
   height="40.453362"
   viewBox="0 0 200 54.493421"
   class="css-1j8o68f"
   version="1.1"
   id="svg63"
   sodipodi:docname="text.svg"
   inkscape:export-filename="text.png"
   inkscape:export-xdpi="96"
   inkscape:export-ydpi="96"
   inkscape:version="1.3 (0e150ed6c4, 2023-07-21)"
   xmlns:inkscape="http://www.inkscape.org/namespaces/inkscape"
   xmlns:sodipodi="http://sodipodi.sourceforge.net/DTD/sodipodi-0.dtd"
   xmlns="http://www.w3.org/2000/svg"
   xmlns:svg="http://www.w3.org/2000/svg">
  <sodipodi:namedview
     id="namedview65"
     pagecolor="#505050"
     bordercolor="#ffffff"
     borderopacity="1"
     inkscape:showpageshadow="0"
     inkscape:pageopacity="0"
     inkscape:pagecheckerboard="1"
     inkscape:deskcolor="#505050"
     showgrid="false"
     inkscape:zoom="5.5246205"
     inkscape:cx="66.701414"
     inkscape:cy="-0.090503954"
     inkscape:window-width="1920"
     inkscape:window-height="1051"
     inkscape:window-x="-9"
     inkscape:window-y="-9"
     inkscape:window-maximized="1"
     inkscape:current-layer="svg63" />
  <defs
     id="SvgjsDefs2890" />
  <g
     id="SvgjsG2893"
     featurekey="nameFeature-0"
     transform="matrix(1.2438585,0,0,1.2438585,-0.19901646,-13.433682)"
     fill="#ea5455"
     inkscape:export-filename="text.png"
     inkscape:export-xdpi="96"
     inkscape:export-ydpi="96">
    <path
       d="M 23.04,40 20.76,33.92 H 8.16 L 5.84,40 H 0.16 L 10.88,12 H 18 L 28.76,40 Z M 9.96,29.08 h 8.96 L 14.44,17.24 Z m 33.25,-9.32 h 5.28 V 40 h -5.28 v -2.56 c -1.36,1.8 -3.56,3.12 -6.48,3.12 -5.32,0 -8,-3.56 -8,-9 v -11.8 h 5.28 v 10.8 c 0,3.08 1.4,5.08 4.32,5.08 3,0 4.88,-2.32 4.88,-5.92 z m 19.49,15.32 1.28,4.28 c -1.6,0.64 -3.04,0.96 -4.72,0.96 -4.64,0 -6.76,-2.88 -6.76,-7.24 V 24.4 h -3.4 v -4.64 h 3.4 V 13.2 h 5.32 v 6.56 h 5.92 v 4.64 h -5.92 v 8.68 c 0,1.64 0.8,2.56 2.48,2.56 0.92,0 1.6,-0.16 2.4,-0.56 z m 11.97,5.48 c -6.24,0 -10.84,-4.64 -10.84,-10.68 0,-6.08 4.6,-10.68 10.84,-10.68 6.24,0 10.8,4.6 10.8,10.68 0,6.04 -4.56,10.68 -10.8,10.68 z m 0,-4.8 c 3.36,0 5.68,-2.52 5.68,-5.88 0,-3.36 -2.32,-5.88 -5.68,-5.88 -3.4,0 -5.68,2.52 -5.68,5.88 0,3.36 2.28,5.88 5.68,5.88 z m 31.37,-10.44 c 2.76,1.24 4.52,3.6 4.52,6.76 0,4.8 -3.56,7.92 -9.52,7.92 H 86.92 V 12 h 13.36 c 5.48,0 9.2,3.04 9.24,7.48 0,2.68 -1.32,4.68 -3.48,5.84 z m -5.8,-8.6 h -7.96 v 6.92 h 8.08 c 2.28,0 3.8,-1.6 3.76,-3.52 0,-1.96 -1.56,-3.44 -3.88,-3.4 z M 101,35.24 c 2.6,0 4.12,-1.64 4.12,-3.68 0,-2 -1.48,-3.6 -4.08,-3.6 h -8.76 v 7.28 z M 112.05,40 V 10.8 h 5.28 V 40 Z m 17.53,0.56 c -6.24,0 -10.84,-4.64 -10.84,-10.68 0,-6.08 4.6,-10.68 10.84,-10.68 6.24,0 10.8,4.6 10.8,10.68 0,6.04 -4.56,10.68 -10.8,10.68 z m 0,-4.8 c 3.36,0 5.68,-2.52 5.68,-5.88 0,-3.36 -2.32,-5.88 -5.68,-5.88 -3.4,0 -5.68,2.52 -5.68,5.88 0,3.36 2.28,5.88 5.68,5.88 z M 160.95,40 h -6.04 l -4.76,-6.44 -4.76,6.44 h -6 l 7.56,-10.24 -7.24,-10 h 6 l 4.44,6.12 4.48,-6.12 h 5.96 l -7.2,10 z"
       id="path57" />
  </g>
  <g
     id="SvgjsG2894"
     featurekey="sloganFeature-0"
     transform="matrix(0.51465976,0,0,0.51465976,19.330944,44.056138)"
     fill="#ea5455" />
  <text
     xml:space="preserve"
     style="font-style:normal;font-variant:normal;font-weight:normal;font-stretch:normal;font-size:10.7765px;line-height:1.25;font-family:Poppins;-inkscape-font-specification:Poppins;fill:#ea5455;fill-opacity:1;stroke-width:1.34707"
     x="22.021244"
     y="54.417984"
     id="text1"><tspan
       sodipodi:role="line"
       id="tspan1"
       style="font-style:normal;font-variant:normal;font-weight:normal;font-stretch:normal;font-size:10.7765px;font-family:Poppins;-inkscape-font-specification:Poppins;fill:#ea5455;fill-opacity:1;stroke-width:1.34707"
       x="22.021244"
       y="54.417984">ROBLOX AUTOMATION TOOLS</tspan></text>
</svg>
