<svg width="500" height="498" viewBox="0 0 500 498" fill="none" xmlns="http://www.w3.org/2000/svg">
<path fill-rule="evenodd" clip-rule="evenodd" d="M250 0L500 248.75L250 497.5L0 248.75L250 0ZM250.625 157.5L267.66 157.5H317.422C334.912 157.5 349.063 171.536 349.063 188.884V307.448C349.063 324.796 334.912 338.832 317.422 338.832H183.828C166.338 338.832 152.188 324.796 152.188 307.448V188.884C152.188 179.623 141.192 171.306 133.601 165.564C126.973 160.55 122.94 157.5 131.094 157.5H236.563C219.688 157.5 242.847 157.5 250.625 157.5ZM201.406 283.038C197.539 283.038 194.375 286.176 194.375 290.012C194.375 293.848 197.539 296.986 201.406 296.986H215.469C219.336 296.986 222.5 293.848 222.5 290.012C222.5 286.176 219.336 283.038 215.469 283.038H201.406ZM243.594 283.038C239.727 283.038 236.563 286.176 236.563 290.012C236.563 293.848 239.727 296.986 243.594 296.986H257.656C261.523 296.986 264.688 293.848 264.688 290.012C264.688 286.176 261.523 283.038 257.656 283.038H243.594ZM285.781 283.038C281.914 283.038 278.75 286.176 278.75 290.012C278.75 293.848 281.914 296.986 285.781 296.986H299.844C303.711 296.986 306.875 293.848 306.875 290.012C306.875 286.176 303.711 283.038 299.844 283.038H285.781ZM195.069 215.922L219.818 240.531C216.653 243.199 212.622 244.679 208.438 244.679C203.776 244.679 199.304 242.842 196.008 239.572C192.711 236.302 190.859 231.867 190.859 227.243C190.859 223.078 192.362 219.067 195.069 215.922ZM292.813 244.679C297.475 244.679 301.946 242.842 305.242 239.572C308.539 236.302 310.391 231.867 310.391 227.243C310.391 223.22 308.989 219.341 306.454 216.247L281.76 240.801C284.874 243.299 288.771 244.679 292.813 244.679ZM131.094 213.294H138.125V296.986H131.094C119.448 296.986 110 287.615 110 276.063V234.217C110 222.666 119.448 213.294 131.094 213.294ZM370.156 213.294C381.802 213.294 391.25 222.666 391.25 234.217V276.063C391.25 287.615 381.802 296.986 370.156 296.986H363.125V213.294H370.156Z" fill="#EA5455"/>
</svg>
