<svg width="886" height="886" viewBox="0 0 886 886" fill="none" xmlns="http://www.w3.org/2000/svg">
<g clip-path="url(#clip0_67_2)">
<rect width="886" height="886" fill="#18181B"/>
<g filter="url(#filter0_f_67_2)">
<ellipse cx="113.526" cy="128.105" rx="407.35" ry="280.908" transform="rotate(-38.5 113.526 128.105)" fill="#3F3F46"/>
</g>
<g filter="url(#filter1_f_67_2)">
<ellipse cx="736.204" cy="758.322" rx="458.816" ry="394.559" transform="rotate(-27.5 736.204 758.322)" fill="#52525B" fill-opacity="0.56"/>
</g>
<path fill-rule="evenodd" clip-rule="evenodd" d="M893 -5H-7V891.4H893V-5ZM444.627 209.187L485.611 209.187H616.39C661.365 209.187 697.752 245.279 697.752 289.89V594.767C697.752 639.377 661.365 675.47 616.39 675.47H272.863C227.888 675.47 191.502 639.377 191.502 594.767V289.89C191.502 266.075 163.228 244.688 143.709 229.924C126.664 217.03 116.295 209.187 137.261 209.187H408.466C365.073 209.187 424.625 209.187 444.627 209.187ZM318.064 531.998C308.12 531.998 299.984 540.068 299.984 549.932C299.984 559.795 308.12 567.866 318.064 567.866H354.225C364.169 567.866 372.305 559.795 372.305 549.932C372.305 540.068 364.169 531.998 354.225 531.998H318.064ZM426.546 531.998C416.602 531.998 408.466 540.068 408.466 549.932C408.466 559.795 416.602 567.866 426.546 567.866H462.707C472.651 567.866 480.788 559.795 480.788 549.932C480.788 540.068 472.651 531.998 462.707 531.998H426.546ZM535.029 531.998C525.084 531.998 516.948 540.068 516.948 549.932C516.948 559.795 525.084 567.866 535.029 567.866H571.189C581.134 567.866 589.27 559.795 589.27 549.932C589.27 540.068 581.134 531.998 571.189 531.998H535.029ZM301.768 359.415L365.409 422.696C357.269 429.556 346.905 433.361 336.145 433.361C324.157 433.361 312.66 428.637 304.183 420.229C295.706 411.821 290.944 400.417 290.944 388.526C290.944 377.816 294.807 367.501 301.768 359.415ZM553.109 433.361C565.097 433.361 576.594 428.637 585.071 420.229C593.548 411.821 598.31 400.417 598.31 388.526C598.31 378.182 594.706 368.206 588.187 360.25L524.689 423.39C532.695 429.812 542.718 433.361 553.109 433.361ZM137.261 352.658H155.341V567.866H137.261C107.315 567.866 83.0195 543.767 83.0195 514.064V406.46C83.0195 376.757 107.315 352.658 137.261 352.658ZM751.993 352.658C781.939 352.658 806.234 376.757 806.234 406.46V514.064C806.234 543.767 781.939 567.866 751.993 567.866H733.913V352.658H751.993Z" fill="#EA5455"/>
</g>
<defs>
<filter id="filter0_f_67_2" x="-650.149" y="-607.51" width="1527.35" height="1471.23" filterUnits="userSpaceOnUse" color-interpolation-filters="sRGB">
<feFlood flood-opacity="0" result="BackgroundImageFix"/>
<feBlend mode="normal" in="SourceGraphic" in2="BackgroundImageFix" result="shape"/>
<feGaussianBlur stdDeviation="200" result="effect1_foregroundBlur_67_2"/>
</filter>
<filter id="filter1_f_67_2" x="-109.8" y="-50.8452" width="1692.01" height="1618.33" filterUnits="userSpaceOnUse" color-interpolation-filters="sRGB">
<feFlood flood-opacity="0" result="BackgroundImageFix"/>
<feBlend mode="normal" in="SourceGraphic" in2="BackgroundImageFix" result="shape"/>
<feGaussianBlur stdDeviation="200" result="effect1_foregroundBlur_67_2"/>
</filter>
<clipPath id="clip0_67_2">
<rect width="886" height="886" fill="white"/>
</clipPath>
</defs>
</svg>
